<?xml version="1.0" encoding="UTF-8" standalone="no"?>
<!DOCTYPE svg PUBLIC "-//W3C//DTDSVG1.1//EN" "http://www.w3.org/Graphics/SVG/1.1/DTD/svg11.dtd">
<svg version="1.1" xmlns="http://www.w3.org/2000/svg" xmlns:xlink="http://www.w3.org/1999/xlink" preserveAspectRatio="xMidYMid meet" viewBox="0 0 612 612" width="40" height="40">
  <defs>
    <path d="M881 265.55C881 265.55 881 265.55 881 265.55C881 626.75 881 827.42 881 867.55C881 867.55 881 867.55 881 867.55C399.8 867.55 132.47 867.55 79 867.55C79 867.55 79 867.55 79 867.55C79 506.35 79 305.69 79 265.55C79 265.55 79 265.55 79 265.55C560.2 265.55 827.53 265.55 881 265.55Z" id="acdoQx0n"></path>
    <path d="M289.19 431C296.67 438.48 308.77 438.48 316.23 431C323.71 423.52 323.71 411.42 316.23 403.96C310.98 398.7 284.71 372.42 237.42 325.12C358.89 325.13 426.38 325.13 439.88 325.13C450.43 325.13 459 316.56 459 306C459 295.44 450.43 286.88 439.88 286.88C426.38 286.88 358.89 286.88 237.42 286.87C284.71 239.59 310.98 213.32 316.23 208.06C323.71 200.58 323.71 188.48 316.23 181.02C308.75 173.54 296.65 173.54 289.19 181.02C278.37 191.84 191.82 278.39 181 289.21C176.41 293.8 175 300.07 176.03 306.02C174.99 311.93 176.43 318.22 181 322.81C181 322.81 278.37 420.18 289.19 431ZM612 306C612 136.99 475.01 0 306 0C136.99 0 0 137.01 0 306C0 474.99 136.99 612 306 612C475.01 612 612 475.01 612 306ZM573.75 306C573.75 453.88 453.88 573.75 306 573.75C158.13 573.75 38.25 453.87 38.25 306C38.25 158.12 158.13 38.25 306 38.25C453.88 38.25 573.75 158.13 573.75 306Z" id="btOYg9hIe"></path>
    <path d="M156.04 173.3C167.09 173.3 176.04 182.25 176.04 193.3C176.04 241.82 176.04 367.41 176.04 415.93C176.04 426.98 167.09 435.93 156.04 435.93C151.91 435.93 159.52 435.93 155.38 435.93C144.34 435.93 135.38 426.98 135.38 415.93C135.38 367.41 135.38 241.82 135.38 193.3C135.38 182.25 144.34 173.3 155.38 173.3C159.52 173.3 151.91 173.3 156.04 173.3Z" id="c785BUpBL"></path>
  </defs>
  <g>
    <g>
      <g>
        <use xlink:href="#acdoQx0n" opacity="1" fill="#000000" fill-opacity="0"></use>
        <g>
          <use xlink:href="#acdoQx0n" opacity="1" fill-opacity="0" stroke="#000000" stroke-width="1" stroke-opacity="0"></use>
        </g>
      </g>
      <g>
        <use xlink:href="#btOYg9hIe" opacity="1" fill="#f93f3f" fill-opacity="1"></use>
        <g>
          <use xlink:href="#btOYg9hIe" opacity="1" fill-opacity="0" stroke="#000000" stroke-width="1" stroke-opacity="0"></use>
        </g>
      </g>
      <g>
        <use xlink:href="#c785BUpBL" opacity="1" fill="#f93f3f" fill-opacity="1"></use>
      </g>
    </g>
  </g>
</svg>
