<?xml version="1.0" encoding="UTF-8" standalone="no"?>
<!DOCTYPE svg PUBLIC "-//W3C//DTDSVG1.1//EN" "http://www.w3.org/Graphics/SVG/1.1/DTD/svg11.dtd">
<svg version="1.1" xmlns="http://www.w3.org/2000/svg" xmlns:xlink="http://www.w3.org/1999/xlink" preserveAspectRatio="xMidYMid meet" viewBox="0 0 612 612" width="40" height="40">
  <defs>
    <path d="M0 265.55C0 265.55 0 265.55 0 265.55C0 626.75 0 827.42 0 867.55C0 867.55 0 867.55 0 867.55C481.2 867.55 748.53 867.55 802 867.55C802 867.55 802 867.55 802 867.55C802 506.35 802 305.69 802 265.55C802 265.55 802 265.55 802 265.55C320.8 265.55 53.47 265.55 0 265.55Z" id="d4bj0Sj3aV"></path>
    <path d="M322.81 431C315.33 438.48 303.23 438.48 295.77 431C288.29 423.52 288.29 411.42 295.77 403.96C301.02 398.7 327.29 372.42 374.58 325.12C253.11 325.13 185.62 325.13 172.12 325.13C161.57 325.13 153 316.56 153 306C153 295.44 161.57 286.88 172.12 286.88C185.62 286.88 253.11 286.88 374.58 286.87C327.29 239.59 301.02 213.32 295.77 208.06C288.29 200.58 288.29 188.48 295.77 181.02C303.25 173.54 315.35 173.54 322.81 181.02C333.63 191.84 420.18 278.39 431 289.21C435.59 293.8 437.01 300.07 435.97 306.02C437.01 311.93 435.57 318.22 431 322.81C431 322.81 333.63 420.18 322.81 431ZM0 306C0 136.99 136.99 0 306 0C475.01 0 612 137.01 612 306C612 474.99 475.01 612 306 612C136.99 612 0 475.01 0 306ZM38.25 306C38.25 453.88 158.13 573.75 306 573.75C453.88 573.75 573.75 453.87 573.75 306C573.75 158.12 453.87 38.25 306 38.25C158.12 38.25 38.25 158.13 38.25 306Z" id="b3jm8aY1tm"></path>
    <path d="M724.96 173.3C713.91 173.3 704.96 182.25 704.96 193.3C704.96 241.82 704.96 367.41 704.96 415.93C704.96 426.98 713.91 435.93 724.96 435.93C729.09 435.93 721.48 435.93 725.62 435.93C736.66 435.93 745.62 426.98 745.62 415.93C745.62 367.41 745.62 241.82 745.62 193.3C745.62 182.25 736.66 173.3 725.62 173.3C721.48 173.3 729.09 173.3 724.96 173.3Z" id="bgHlA17In"></path>
    <path d="M460 175.63C471.05 175.63 480 184.58 480 195.62C480 243.88 480 368.63 480 416.88C480 427.92 471.05 436.87 460 436.87C455 436.88 460 436.88 455 436.87C443.95 436.87 435 427.92 435 416.88C435 368.63 435 243.88 435 195.62C435 184.58 443.95 175.63 455 175.63C460 175.63 455 175.63 460 175.63Z" id="d5M64w7yXZ"></path>
  </defs>
  <g>
    <g>
      <g>
        <use xlink:href="#d4bj0Sj3aV" opacity="1" fill="#000000" fill-opacity="0"></use>
        <g>
          <use xlink:href="#d4bj0Sj3aV" opacity="1" fill-opacity="0" stroke="#000000" stroke-width="1" stroke-opacity="0"></use>
        </g>
      </g>
      <g>
        <use xlink:href="#b3jm8aY1tm" opacity="1" fill="#0077B7" fill-opacity="1"></use>
        <g>
          <use xlink:href="#b3jm8aY1tm" opacity="1" fill-opacity="0" stroke="#000000" stroke-width="1" stroke-opacity="0"></use>
        </g>
      </g>
      <g>
        <use xlink:href="#bgHlA17In" opacity="1" fill="#0077B7" fill-opacity="1"></use>
      </g>
      <g>
        <use xlink:href="#d5M64w7yXZ" opacity="1" fill="#0077B7" fill-opacity="1"></use>
      </g>
    </g>
  </g>
</svg>
