<svg version="1.1" xmlns="http://www.w3.org/2000/svg" xmlns:xlink="http://www.w3.org/1999/xlink" preserveAspectRatio="xMidYMid meet" viewBox="0 0 612 612" width="40" height="40">
 <g>
  <title>background</title>
  <rect fill="none" id="canvas_background" height="40" width="40" y="-1" x="-1"/>
 </g>
 <g>
  <title>Layer 1</title>
  <g transform="rotate(-180 306,306) " id="svg_1">
   <g id="svg_2">
    <g id="_x35__2_">
     <g id="svg_3">
      <path id="svg_4" fill="#f93f3f" d="m431.001,289.189l-108.19,-108.19c-7.478,-7.478 -19.583,-7.478 -27.042,0c-7.478,7.478 -7.478,19.584 0,27.043l78.814,78.833l-202.458,0c-10.557,0 -19.125,8.568 -19.125,19.125c0,10.557 8.568,19.125 19.125,19.125l202.457,0l-78.814,78.814c-7.478,7.478 -7.478,19.584 0,27.042c7.478,7.479 19.584,7.479 27.042,0l108.19,-108.189c4.59,-4.59 6.005,-10.863 4.973,-16.811c1.033,-5.91 -0.401,-12.202 -4.972,-16.792zm-125.001,-289.189c-169.008,0 -306,136.992 -306,306s136.992,306 306,306s306,-137.012 306,-306s-136.992,-306 -306,-306zm0,573.75c-147.875,0 -267.75,-119.875 -267.75,-267.75c0,-147.875 119.875,-267.75 267.75,-267.75c147.875,0 267.75,119.875 267.75,267.75c0,147.875 -119.875,267.75 -267.75,267.75z"/>
     </g>
    </g>
   </g>
   <g id="svg_5"/>
   <g id="svg_6"/>
   <g id="svg_7"/>
   <g id="svg_8"/>
   <g id="svg_9"/>
   <g id="svg_10"/>
   <g id="svg_11"/>
   <g id="svg_12"/>
   <g id="svg_13"/>
   <g id="svg_14"/>
   <g id="svg_15"/>
   <g id="svg_16"/>
   <g id="svg_17"/>
   <g id="svg_18"/>
   <g id="svg_19"/>
  </g>
 </g>
</svg>