<?xml version="1.0" standalone="no"?>
<!DOCTYPE svg PUBLIC "-//W3C//DTDSVG20010904//EN"  "http://www.w3.org/TR/2001/REC-SVG-20010904/DTD/svg10.dtd">
<svg version="1.0" xmlns="http://www.w3.org/2000/svg" width="512.000000pt" height="512.000000pt" viewBox="0 0 512.000000 512.000000" preserveAspectRatio="xMidYMid meet">
  <title>Group</title>
  <desc>Created with Sketch.</desc>
  <g transform="translate(0.000000,512.000000) scale(0.100000,-0.100000)" fill="#000000" stroke="none">
    <path d="M2320 4939 c-105 -11 -316 -53 -430 -86 -696 -201 -1289 -745 -1555
    -1427 -219 -559 -219 -1173 0 -1732 240 -616 743 -1119 1359 -1359 559 -219
    1173 -219 1732 0 616 240 1119 743 1359 1359 219 559 219 1173 0 1732 -266
    682 -859 1226 -1555 1427 -121 35 -327 75 -449 87 -120 12 -339 11 -461 -1z
    m395 -510 c464 -40 876 -235 1196 -566 87 -90 159 -176 159 -191 0 -9 -123
    -121 -220 -200 l-28 -23 -45 58 c-83 108 -254 260 -387 345 -161 103 -385 190
    -576 224 -134 24 -374 24 -509 0 -528 -94 -972 -456 -1179 -961 l-17 -39 983
    -983 c802 -802 986 -982 1003 -977 46 14 248 115 306 155 104 69 149 107 254
    213 117 119 196 226 270 368 47 91 135 321 135 356 0 9 -89 12 -410 12 l-410
    0 0 170 0 170 600 0 c330 0 600 -4 600 -9 0 -4 -5 -66 -10 -137 -47 -574 -357
    -1096 -840 -1414 -171 -112 -340 -188 -566 -253 l-51 -15 -1121 1121 -1121
    1122 40 130 c181 589 643 1057 1229 1243 247 79 464 103 715 81z m-1441 -2490
    c287 -284 690 -683 896 -887 l375 -371 -60 5 c-288 23 -493 73 -720 176 -203
    93 -373 208 -525 358 -327 322 -524 753 -554 1215 l-6 89 36 -34 c20 -19 271
    -267 558 -551z"/>
  </g>
</svg>
