<svg width="338" height="178" xmlns="http://www.w3.org/2000/svg">
 <g>
  <title>background</title>
  <rect fill="none" id="canvas_background" height="180" width="340" y="-1" x="-1"/>
 </g>
 <g>
  <title>Layer 1</title>
  <rect fill="#000000" fill-opacity="0" id="svg_1" stroke-width="5" stroke="#0077b7" rx="9.5" height="155.5" width="245.49" y="3.11566" x="90.00111"/>
  <path fill="#000000" fill-opacity="0" id="svg_2" stroke-width="2" stroke-opacity="0.5" stroke="#0077b7" d="m236.444,25.3883l-16.824,18.1939l13.988,16.3393"/>
  <path fill="#000000" fill-opacity="0" id="svg_3" stroke-width="2" stroke-opacity="0.5" stroke="#0077b7" d="m264.242,60.225l16.824,-18.194l-13.988,-16.3392"/>
  <path id="svg_4" stroke-width="2" stroke-opacity="0.5" stroke="#0077b7" d="m258.732,20.6718l-16.598,42.1114"/>
  <path id="svg_5" stroke-width="2" stroke-opacity="0.5" stroke="#0077b7" d="m92.8854,57.5762c75.0846,0 92.4006,0 91.6726,0"/>
  <path id="svg_6" stroke-width="2" stroke-opacity="0.5" stroke="#0077b7" d="m92.8854,83.562c85.7906,0 105.5756,0 104.7436,0"/>
  <path id="svg_8" stroke-width="2" stroke-opacity="0.5" stroke="#0077b7" d="m92.8854,66.2381c50.0446,0 61.5856,0 61.1006,0"/>
  <path id="svg_9" stroke-width="2" stroke-opacity="0.5" stroke="#0077b7" d="m92.8854,74.9c50.0446,0 61.5856,0 61.1006,0"/>
  <path id="svg_10" stroke-width="2" stroke-opacity="0.5" stroke="#0077b7" d="m92.8854,48.9143c64.3426,0 79.1816,0 78.5576,0"/>
  <rect fill="#490b0b" fill-opacity="0" id="svg_11" stroke-width="3" stroke="#0077b7" transform="rotate(-90 43.29499816894532,109.65359497070312) " rx="8.5" height="84.3072" width="135.59" y="67.5" x="-24.5"/>
  <ellipse id="svg_12" fill="#0077b7" ry="4.33095" rx="4.36536" cy="160.676" cx="43.6536"/>
 </g>
</svg>