<?xml version="1.0" encoding="UTF-8"?>
<svg xmlns="http://www.w3.org/2000/svg" xmlns:xlink="http://www.w3.org/1999/xlink" width="50pt" height="50pt" viewBox="0 0 50 50" version="1.1">
<g id="surface1">
<path style=" stroke:none;fill-rule:nonzero;fill:rgb(45.490196%,29.803922%,61.960784%);fill-opacity:1;" d="M 25 0 C 11.191406 0 0 11.191406 0 25 C 0 38.808594 11.191406 50 25 50 C 38.808594 50 50 38.808594 50 25 C 50 11.191406 38.808594 0 25 0 Z M 5.371094 25.261719 L 24.738281 44.628906 C 14.105469 44.488281 5.511719 35.894531 5.371094 25.261719 Z M 29.394531 44.136719 L 5.863281 20.605469 C 7.859375 11.878906 15.667969 5.367188 25 5.367188 C 31.523438 5.367188 37.300781 8.550781 40.871094 13.445312 L 38.152344 15.84375 C 35.257812 11.691406 30.445312 8.972656 25 8.972656 C 18.066406 8.972656 12.160156 13.378906 9.929688 19.542969 L 30.457031 40.070312 C 35.441406 38.265625 39.277344 34.058594 40.558594 28.847656 L 32.050781 28.847656 L 32.050781 25 L 44.632812 25 C 44.632812 34.332031 38.121094 42.140625 29.394531 44.136719 Z M 29.394531 44.136719 "/>
</g>
</svg>
