<?xml version="1.0" encoding="UTF-8"?>
<svg xmlns="http://www.w3.org/2000/svg" xmlns:xlink="http://www.w3.org/1999/xlink" width="50pt" height="50pt" viewBox="0 0 50 50" version="1.1">
<defs>
<radialGradient id="radial0" gradientUnits="userSpaceOnUse" cx="0.5" cy="-0.5" fx="0.5" fy="-0.5" r="1" gradientTransform="matrix(50,0,0,49.757813,0,0.121094)">
<stop offset="0" style="stop-color:rgb(12.54902%,77.647059%,71.764706%);stop-opacity:1;"/>
<stop offset="1" style="stop-color:rgb(30.196078%,60.392157%,74.901961%);stop-opacity:1;"/>
</radialGradient>
</defs>
<g id="surface1">
<path style=" stroke:none;fill-rule:nonzero;fill:url(#radial0);" d="M 36.238281 17.351562 L 36.21875 17.34375 C 36.207031 17.339844 36.195312 17.335938 36.1875 17.328125 C 36.15625 17.292969 36.144531 17.25 36.152344 17.207031 L 37.160156 11.042969 L 41.894531 15.769531 L 36.972656 17.863281 C 36.957031 17.867188 36.945312 17.871094 36.929688 17.871094 L 36.910156 17.871094 C 36.898438 17.863281 36.890625 17.855469 36.882812 17.847656 C 36.699219 17.644531 36.480469 17.476562 36.238281 17.351562 Z M 43.101562 16.976562 L 48.160156 22.03125 C 49.210938 23.082031 49.738281 23.605469 49.929688 24.214844 C 49.957031 24.304688 49.980469 24.394531 50 24.484375 L 37.90625 19.371094 C 37.902344 19.367188 37.894531 19.363281 37.886719 19.363281 C 37.839844 19.34375 37.785156 19.320312 37.785156 19.269531 C 37.785156 19.222656 37.839844 19.199219 37.890625 19.179688 L 37.90625 19.171875 Z M 49.792969 26.109375 C 49.53125 26.597656 49.023438 27.105469 48.160156 27.96875 L 42.457031 33.664062 L 35.078125 32.132812 L 35.039062 32.125 C 34.972656 32.113281 34.90625 32.101562 34.90625 32.042969 C 34.847656 31.425781 34.539062 30.863281 34.050781 30.488281 C 34.019531 30.457031 34.027344 30.410156 34.035156 30.367188 C 34.035156 30.359375 34.035156 30.355469 34.039062 30.347656 L 35.425781 21.839844 L 35.433594 21.808594 C 35.441406 21.746094 35.453125 21.667969 35.511719 21.667969 C 36.113281 21.59375 36.65625 21.28125 37.023438 20.800781 C 37.035156 20.789062 37.042969 20.773438 37.058594 20.765625 C 37.101562 20.746094 37.152344 20.765625 37.195312 20.785156 Z M 41.144531 34.976562 L 31.765625 44.347656 L 33.371094 34.488281 L 33.371094 34.476562 C 33.375 34.460938 33.375 34.449219 33.378906 34.4375 C 33.394531 34.40625 33.425781 34.394531 33.460938 34.378906 L 33.476562 34.375 C 33.828125 34.222656 34.136719 33.992188 34.382812 33.699219 C 34.414062 33.664062 34.453125 33.628906 34.5 33.621094 C 34.511719 33.621094 34.527344 33.621094 34.539062 33.621094 Z M 29.777344 46.332031 L 28.722656 47.386719 L 17.03125 30.511719 C 17.027344 30.503906 17.023438 30.496094 17.019531 30.492188 C 17 30.46875 16.980469 30.441406 16.984375 30.414062 C 16.984375 30.394531 17 30.375 17.011719 30.359375 L 17.027344 30.34375 C 17.0625 30.289062 17.089844 30.238281 17.125 30.179688 L 17.148438 30.136719 L 17.152344 30.132812 C 17.171875 30.101562 17.1875 30.070312 17.21875 30.054688 C 17.246094 30.039062 17.285156 30.046875 17.316406 30.050781 L 30.265625 32.71875 C 30.304688 32.726562 30.335938 32.742188 30.367188 32.761719 C 30.382812 32.78125 30.386719 32.796875 30.390625 32.820312 C 30.574219 33.511719 31.070312 34.078125 31.734375 34.351562 C 31.769531 34.371094 31.753906 34.410156 31.738281 34.453125 C 31.726562 34.472656 31.722656 34.492188 31.71875 34.511719 C 31.554688 35.503906 30.15625 44.027344 29.777344 46.332031 Z M 27.570312 48.535156 C 26.789062 49.304688 26.332031 49.714844 25.8125 49.878906 C 25.300781 50.039062 24.75 50.039062 24.238281 49.878906 C 23.628906 49.6875 23.101562 49.160156 22.050781 48.109375 L 10.3125 36.382812 L 13.378906 31.632812 C 13.390625 31.609375 13.410156 31.589844 13.429688 31.570312 C 13.464844 31.546875 13.511719 31.558594 13.550781 31.570312 C 14.253906 31.785156 15.007812 31.746094 15.6875 31.464844 C 15.722656 31.449219 15.757812 31.441406 15.785156 31.464844 C 15.800781 31.480469 15.8125 31.492188 15.820312 31.507812 Z M 9.179688 35.253906 L 6.488281 32.5625 L 11.804688 30.296875 C 11.820312 30.289062 11.832031 30.289062 11.847656 30.289062 C 11.894531 30.289062 11.917969 30.332031 11.941406 30.371094 C 11.996094 30.453125 12.050781 30.535156 12.113281 30.613281 L 12.128906 30.632812 C 12.144531 30.65625 12.132812 30.675781 12.117188 30.699219 Z M 5.296875 31.371094 L 1.886719 27.96875 C 1.308594 27.390625 0.886719 26.96875 0.59375 26.609375 L 10.957031 28.753906 L 10.996094 28.761719 C 11.058594 28.773438 11.128906 28.785156 11.128906 28.84375 C 11.128906 28.910156 11.050781 28.9375 10.988281 28.964844 L 10.957031 28.976562 Z M 0 24.859375 C 0.0117188 24.640625 0.0507812 24.421875 0.117188 24.214844 C 0.3125 23.605469 0.835938 23.082031 1.886719 22.03125 L 6.246094 17.675781 C 8.253906 20.585938 10.269531 23.492188 12.285156 26.394531 C 12.320312 26.441406 12.359375 26.492188 12.320312 26.53125 C 12.128906 26.742188 11.941406 26.972656 11.804688 27.222656 C 11.789062 27.253906 11.769531 27.28125 11.738281 27.300781 C 11.722656 27.3125 11.703125 27.308594 11.683594 27.304688 L 0 24.855469 Z M 7.414062 16.507812 L 13.277344 10.652344 C 13.828125 10.894531 15.832031 11.738281 17.628906 12.496094 C 18.984375 13.070312 20.222656 13.59375 20.613281 13.761719 C 20.652344 13.777344 20.6875 13.792969 20.703125 13.832031 C 20.714844 13.855469 20.707031 13.886719 20.703125 13.910156 C 20.515625 14.769531 20.769531 15.664062 21.386719 16.292969 C 21.425781 16.332031 21.386719 16.390625 21.351562 16.4375 L 21.332031 16.464844 L 15.382812 25.675781 C 15.367188 25.699219 15.351562 25.722656 15.324219 25.738281 C 15.292969 25.757812 15.25 25.75 15.210938 25.742188 C 14.980469 25.679688 14.742188 25.648438 14.503906 25.644531 C 14.289062 25.644531 14.058594 25.683594 13.820312 25.726562 C 13.792969 25.730469 13.769531 25.734375 13.75 25.71875 C 13.726562 25.703125 13.707031 25.679688 13.691406 25.652344 Z M 14.460938 9.46875 L 22.050781 1.886719 C 23.101562 0.839844 23.628906 0.3125 24.238281 0.121094 C 24.75 -0.0390625 25.300781 -0.0390625 25.8125 0.121094 C 26.417969 0.3125 26.945312 0.839844 27.996094 1.886719 L 29.640625 3.53125 L 24.242188 11.882812 C 24.230469 11.90625 24.210938 11.929688 24.191406 11.945312 C 24.15625 11.96875 24.113281 11.957031 24.074219 11.945312 C 23.207031 11.683594 22.269531 11.863281 21.566406 12.425781 C 21.53125 12.464844 21.476562 12.441406 21.433594 12.421875 C 20.730469 12.117188 15.246094 9.800781 14.460938 9.46875 Z M 30.789062 4.675781 L 35.773438 9.65625 L 34.570312 17.085938 L 34.570312 17.105469 C 34.570312 17.121094 34.566406 17.136719 34.5625 17.15625 C 34.546875 17.179688 34.519531 17.1875 34.496094 17.195312 C 34.238281 17.269531 33.996094 17.390625 33.78125 17.550781 C 33.769531 17.554688 33.761719 17.5625 33.753906 17.570312 C 33.738281 17.585938 33.726562 17.601562 33.703125 17.605469 C 33.683594 17.605469 33.664062 17.601562 33.644531 17.59375 L 26.050781 14.371094 L 26.035156 14.363281 C 25.988281 14.34375 25.929688 14.320312 25.929688 14.273438 C 25.886719 13.851562 25.746094 13.441406 25.523438 13.078125 C 25.488281 13.019531 25.449219 12.957031 25.480469 12.894531 Z M 25.65625 15.898438 L 32.773438 18.910156 C 32.8125 18.929688 32.855469 18.945312 32.875 18.984375 C 32.878906 19.011719 32.878906 19.035156 32.875 19.0625 C 32.851562 19.164062 32.835938 19.285156 32.835938 19.402344 L 32.835938 19.601562 C 32.835938 19.652344 32.785156 19.671875 32.738281 19.691406 L 32.722656 19.699219 C 31.59375 20.179688 16.886719 26.445312 16.863281 26.445312 C 16.84375 26.445312 16.820312 26.445312 16.796875 26.421875 C 16.757812 26.382812 16.796875 26.328125 16.832031 26.277344 L 16.851562 26.253906 L 22.703125 17.203125 L 22.710938 17.1875 C 22.746094 17.132812 22.785156 17.070312 22.847656 17.070312 L 22.90625 17.078125 C 23.039062 17.097656 23.15625 17.113281 23.277344 17.113281 C 24.164062 17.113281 24.988281 16.683594 25.484375 15.945312 C 25.496094 15.925781 25.507812 15.90625 25.527344 15.894531 C 25.5625 15.867188 25.613281 15.878906 25.65625 15.898438 Z M 17.5 27.875 L 33.53125 21.046875 C 33.53125 21.046875 33.554688 21.046875 33.578125 21.070312 C 33.664062 21.15625 33.738281 21.214844 33.8125 21.269531 L 33.847656 21.292969 C 33.878906 21.308594 33.910156 21.332031 33.914062 21.363281 C 33.914062 21.378906 33.914062 21.386719 33.910156 21.398438 L 32.539062 29.824219 L 32.53125 29.859375 C 32.523438 29.921875 32.515625 29.996094 32.453125 29.996094 C 31.710938 30.046875 31.039062 30.460938 30.660156 31.101562 L 30.65625 31.113281 C 30.636719 31.140625 30.621094 31.171875 30.589844 31.1875 C 30.5625 31.199219 30.527344 31.195312 30.496094 31.1875 L 17.714844 28.554688 C 17.699219 28.550781 17.515625 27.878906 17.5 27.875 Z M 17.5 27.875 "/>
</g>
</svg>
