<?xml version="1.0" encoding="UTF-8"?>
<svg xmlns="http://www.w3.org/2000/svg" xmlns:xlink="http://www.w3.org/1999/xlink" width="50pt" height="50pt" viewBox="0 0 50 50" version="1.1">
<g id="surface1">
<path style=" stroke:none;fill-rule:nonzero;fill:rgb(21.568627%,39.607843%,68.627451%);fill-opacity:1;" d="M 44.859375 24.960938 C 43.949219 30.765625 42.171875 32.460938 39.027344 36.359375 C 35.882812 39.664062 31.359375 45.179688 24.949219 44.871094 C 19.148438 43.957031 17.449219 42.183594 13.550781 39.039062 C 10.246094 35.894531 4.730469 31.367188 5.039062 24.960938 C 5.953125 19.15625 7.726562 17.460938 10.871094 13.5625 C 14.019531 10.257812 18.542969 4.742188 24.949219 5.050781 C 30.753906 5.960938 32.449219 7.738281 36.347656 10.882812 C 39.652344 14.027344 45.167969 18.550781 44.859375 24.960938 Z M 44.859375 24.960938 "/>
<path style=" stroke:none;fill-rule:nonzero;fill:rgb(100%,100%,100%);fill-opacity:1;" d="M 24.960938 36.558594 C 24.652344 36.558594 24.34375 36.476562 24.078125 36.320312 L 21.28125 34.664062 C 20.863281 34.425781 21.0625 34.34375 21.199219 34.296875 C 21.757812 34.097656 21.875 34.058594 22.46875 33.71875 C 22.53125 33.679688 22.617188 33.699219 22.679688 33.738281 L 24.832031 35.019531 C 24.910156 35.058594 25.019531 35.058594 25.089844 35.019531 L 33.472656 30.179688 C 33.550781 30.140625 33.601562 30.039062 33.601562 29.949219 L 33.601562 20.277344 C 33.601562 20.179688 33.550781 20.097656 33.472656 20.050781 L 25.089844 15.21875 C 25.011719 15.167969 24.910156 15.167969 24.832031 15.21875 L 16.457031 20.050781 C 16.378906 20.097656 16.328125 20.1875 16.328125 20.277344 L 16.328125 29.949219 C 16.328125 30.039062 16.378906 30.128906 16.457031 30.179688 L 18.75 31.507812 C 20 32.132812 20.753906 31.398438 20.753906 30.664062 L 20.753906 21.109375 C 20.753906 20.972656 20.863281 20.871094 21.003906 20.871094 L 22.0625 20.871094 C 22.191406 20.871094 22.300781 20.980469 22.300781 21.109375 L 22.300781 30.65625 C 22.300781 32.320312 21.398438 33.273438 19.820312 33.273438 C 19.335938 33.273438 18.957031 33.273438 17.886719 32.746094 L 15.683594 31.476562 C 15.140625 31.160156 14.800781 30.574219 14.800781 29.949219 L 14.800781 20.277344 C 14.800781 19.652344 15.140625 19.066406 15.683594 18.75 L 24.066406 13.910156 C 24.59375 13.609375 25.308594 13.609375 25.832031 13.910156 L 34.214844 18.75 C 34.761719 19.066406 35.097656 19.652344 35.097656 20.277344 L 35.097656 29.949219 C 35.097656 30.574219 34.761719 31.160156 34.214844 31.476562 L 25.832031 36.320312 C 25.574219 36.46875 25.269531 36.558594 24.960938 36.558594 Z M 24.960938 36.558594 "/>
<path style=" stroke:none;fill-rule:nonzero;fill:rgb(100%,100%,100%);fill-opacity:1;" d="M 27.550781 29.890625 C 23.878906 29.890625 23.113281 28.203125 23.113281 26.796875 C 23.113281 26.65625 23.222656 26.558594 23.351562 26.558594 L 24.433594 26.558594 C 24.554688 26.558594 24.652344 26.648438 24.671875 26.765625 C 24.832031 27.867188 25.328125 28.421875 27.539062 28.421875 C 29.304688 28.421875 30.058594 28.027344 30.058594 27.082031 C 30.058594 26.546875 29.851562 26.140625 27.101562 25.871094 C 24.8125 25.644531 23.394531 25.140625 23.394531 23.304688 C 23.394531 21.617188 24.820312 20.605469 27.210938 20.605469 C 29.902344 20.605469 31.230469 21.539062 31.398438 23.53125 C 31.410156 23.601562 31.378906 23.671875 31.339844 23.71875 C 31.289062 23.769531 31.230469 23.800781 31.160156 23.800781 L 30.070312 23.800781 C 29.960938 23.800781 29.859375 23.71875 29.832031 23.609375 C 29.574219 22.449219 28.9375 22.082031 27.210938 22.082031 C 25.289062 22.082031 25.058594 22.757812 25.058594 23.253906 C 25.058594 23.859375 25.328125 24.039062 27.925781 24.386719 C 30.507812 24.722656 31.726562 25.207031 31.726562 27.015625 C 31.726562 28.839844 30.199219 29.890625 27.550781 29.890625 Z M 27.550781 29.890625 "/>
</g>
</svg>
