<?xml version="1.0" encoding="UTF-8"?>
<svg xmlns="http://www.w3.org/2000/svg" xmlns:xlink="http://www.w3.org/1999/xlink" width="50pt" height="50pt" viewBox="0 0 50 50" version="1.1">
<g id="surface1">
<path style=" stroke:none;fill-rule:nonzero;fill:rgb(0%,84.705882%,100%);fill-opacity:1;" d="M 29.140625 24.964844 C 29.140625 27.277344 27.269531 29.148438 24.957031 29.148438 C 22.648438 29.148438 20.773438 27.277344 20.773438 24.964844 C 20.773438 22.65625 22.648438 20.785156 24.957031 20.785156 C 27.269531 20.785156 29.140625 22.65625 29.140625 24.964844 Z M 29.140625 24.964844 "/>
<path style=" stroke:none;fill-rule:nonzero;fill:rgb(0%,84.705882%,100%);fill-opacity:1;" d="M 24.957031 34.550781 C 19.082031 34.550781 13.949219 33.859375 10.109375 32.542969 C 7.617188 31.691406 5.5 30.558594 3.992188 29.265625 C 2.390625 27.898438 1.542969 26.410156 1.542969 24.964844 C 1.542969 22.199219 4.574219 19.492188 9.667969 17.726562 C 13.832031 16.273438 19.265625 15.464844 24.949219 15.464844 C 30.535156 15.464844 35.890625 16.25 40.035156 17.683594 C 42.457031 18.515625 44.5 19.601562 45.949219 20.800781 C 47.523438 22.117188 48.359375 23.558594 48.359375 24.964844 C 48.359375 27.839844 44.964844 30.75 39.5 32.558594 C 35.632812 33.839844 30.464844 34.550781 24.957031 34.550781 Z M 24.957031 17.464844 C 19.566406 17.464844 14.234375 18.25 10.332031 19.609375 C 5.648438 21.242188 3.550781 23.476562 3.550781 24.964844 C 3.550781 26.515625 5.808594 28.957031 10.757812 30.648438 C 14.390625 31.890625 19.308594 32.550781 24.957031 32.550781 C 30.257812 32.550781 35.199219 31.882812 38.875 30.660156 C 44.015625 28.949219 46.367188 26.507812 46.367188 24.964844 C 46.367188 24.175781 45.765625 23.242188 44.675781 22.332031 C 43.417969 21.285156 41.582031 20.324219 39.390625 19.566406 C 35.449219 18.214844 30.324219 17.464844 24.957031 17.464844 Z M 24.957031 17.464844 "/>
<path style=" stroke:none;fill-rule:nonzero;fill:rgb(0%,84.705882%,100%);fill-opacity:1;" d="M 15.464844 45.816406 C 14.617188 45.816406 13.867188 45.632812 13.234375 45.265625 C 10.839844 43.882812 10.007812 39.898438 11.015625 34.609375 C 11.839844 30.265625 13.859375 25.167969 16.699219 20.242188 C 19.492188 15.410156 22.839844 11.160156 26.148438 8.285156 C 28.082031 6.601562 30.042969 5.367188 31.808594 4.714844 C 33.734375 4.007812 35.398438 4.007812 36.617188 4.707031 C 39.109375 6.140625 39.933594 10.542969 38.765625 16.175781 C 37.941406 20.175781 35.976562 25 33.226562 29.773438 C 30.292969 34.859375 27.125 38.957031 24.066406 41.632812 C 22.082031 43.367188 20.042969 44.632812 18.175781 45.292969 C 17.199219 45.640625 16.285156 45.816406 15.464844 45.816406 Z M 17.558594 20.742188 L 18.425781 21.242188 C 15.734375 25.910156 13.742188 30.917969 12.976562 34.984375 C 12.050781 39.859375 12.941406 42.792969 14.226562 43.535156 C 14.542969 43.714844 14.957031 43.816406 15.464844 43.816406 C 17.125 43.816406 19.734375 42.765625 22.75 40.132812 C 25.640625 37.609375 28.667969 33.675781 31.492188 28.785156 C 34.140625 24.191406 36.023438 19.574219 36.808594 15.785156 C 37.898438 10.476562 36.957031 7.226562 35.617188 6.449219 C 34.933594 6.058594 33.824219 6.109375 32.492188 6.601562 C 30.949219 7.167969 29.207031 8.273438 27.457031 9.800781 C 24.316406 12.535156 21.109375 16.601562 18.425781 21.25 Z M 17.558594 20.742188 "/>
<path style=" stroke:none;fill-rule:nonzero;fill:rgb(0%,84.705882%,100%);fill-opacity:1;" d="M 34.449219 45.839844 C 32.183594 45.839844 29.308594 44.476562 26.308594 41.890625 C 22.957031 39.007812 19.550781 34.714844 16.699219 29.792969 C 13.898438 24.957031 11.898438 19.933594 11.058594 15.625 C 10.566406 13.109375 10.476562 10.800781 10.792969 8.941406 C 11.140625 6.917969 11.964844 5.476562 13.191406 4.765625 C 15.675781 3.324219 19.898438 4.808594 24.199219 8.632812 C 27.25 11.339844 30.449219 15.457031 33.207031 20.226562 C 36.148438 25.308594 38.125 30.101562 38.910156 34.082031 C 39.417969 36.667969 39.5 39.066406 39.140625 41.015625 C 38.757812 43.089844 37.890625 44.566406 36.640625 45.292969 C 36.015625 45.660156 35.273438 45.839844 34.449219 45.839844 Z M 18.433594 28.792969 C 21.132812 33.457031 24.484375 37.683594 27.617188 40.375 C 31.375 43.609375 34.359375 44.308594 35.648438 43.558594 C 36.992188 42.785156 37.976562 39.609375 36.957031 34.476562 C 36.207031 30.707031 34.316406 26.125 31.484375 21.234375 C 28.824219 16.640625 25.765625 12.699219 22.875 10.132812 C 18.824219 6.535156 15.542969 5.726562 14.199219 6.5 C 13.515625 6.890625 13.007812 7.882812 12.765625 9.285156 C 12.492188 10.898438 12.574219 12.964844 13.023438 15.242188 C 13.824219 19.332031 15.742188 24.140625 18.433594 28.792969 Z M 18.433594 28.792969 "/>
</g>
</svg>
