<?xml version="1.0" encoding="UTF-8"?>
<svg xmlns="http://www.w3.org/2000/svg" xmlns:xlink="http://www.w3.org/1999/xlink" width="50pt" height="47pt" viewBox="0 0 50 47" version="1.1">
<g id="surface1">
<path style=" stroke:none;fill-rule:nonzero;fill:rgb(46.27451%,29.019608%,73.72549%);fill-opacity:1;" d="M 34.644531 32.695312 C 36.488281 32.507812 37.890625 30.9375 37.824219 29.054688 C 37.761719 27.171875 36.171875 25.667969 34.261719 25.667969 L 34.136719 25.667969 C 32.164062 25.730469 30.636719 27.359375 30.699219 29.304688 C 30.761719 30.246094 31.144531 31.0625 31.71875 31.628906 C 29.554688 35.832031 26.246094 38.90625 21.28125 41.480469 C 17.910156 43.238281 14.410156 43.863281 10.910156 43.425781 C 8.046875 43.046875 5.820312 41.792969 4.421875 39.722656 C 2.386719 36.648438 2.195312 33.320312 3.914062 29.996094 C 5.121094 27.613281 7.03125 25.855469 8.238281 24.976562 C 7.984375 24.160156 7.601562 22.78125 7.414062 21.773438 C -1.8125 28.363281 -0.859375 37.277344 1.941406 41.480469 C 4.039062 44.617188 8.304688 46.5625 13.011719 46.5625 C 14.285156 46.5625 15.554688 46.4375 16.828125 46.125 C 24.972656 44.554688 31.144531 39.785156 34.644531 32.695312 Z M 45.84375 24.914062 C 41.007812 19.328125 33.882812 16.253906 25.738281 16.253906 L 24.71875 16.253906 C 24.144531 15.125 22.9375 14.371094 21.601562 14.371094 L 21.472656 14.371094 C 19.5 14.433594 17.972656 16.066406 18.039062 18.011719 C 18.101562 19.894531 19.691406 21.398438 21.601562 21.398438 L 21.726562 21.398438 C 23.128906 21.335938 24.335938 20.457031 24.847656 19.265625 L 25.992188 19.265625 C 30.828125 19.265625 35.410156 20.644531 39.542969 23.34375 C 42.726562 25.414062 45.015625 28.113281 46.289062 31.375 C 47.371094 34.011719 47.304688 36.585938 46.160156 38.78125 C 44.378906 42.105469 41.390625 43.925781 37.445312 43.925781 C 34.898438 43.925781 32.480469 43.175781 31.207031 42.609375 C 30.507812 43.238281 29.238281 44.242188 28.34375 44.867188 C 31.082031 46.125 33.882812 46.8125 36.554688 46.8125 C 42.660156 46.8125 47.179688 43.488281 48.898438 40.160156 C 50.742188 36.523438 50.613281 30.246094 45.84375 24.914062 Z M 13.519531 33.761719 C 13.585938 35.644531 15.175781 37.148438 17.082031 37.148438 L 17.210938 37.148438 C 19.183594 37.085938 20.710938 35.457031 20.648438 33.511719 C 20.582031 31.628906 18.992188 30.121094 17.082031 30.121094 L 16.957031 30.121094 C 16.828125 30.121094 16.636719 30.121094 16.511719 30.183594 C 13.902344 25.917969 12.820312 21.273438 13.203125 16.253906 C 13.457031 12.488281 14.730469 9.226562 16.957031 6.527344 C 18.800781 4.203125 22.363281 3.074219 24.78125 3.011719 C 31.527344 2.886719 34.390625 11.171875 34.582031 14.496094 C 35.410156 14.683594 36.808594 15.125 37.761719 15.4375 C 37 5.269531 30.636719 0 24.527344 0 C 18.800781 0 13.519531 4.078125 11.421875 10.101562 C 8.492188 18.136719 10.402344 25.855469 13.964844 31.941406 C 13.648438 32.378906 13.457031 33.070312 13.519531 33.761719 Z M 13.519531 33.761719 "/>
</g>
</svg>
