<?xml version="1.0" encoding="UTF-8"?>
<svg xmlns="http://www.w3.org/2000/svg" xmlns:xlink="http://www.w3.org/1999/xlink" width="50pt" height="37pt" viewBox="0 0 50 37" version="1.1">
<g id="surface1">
<path style=" stroke:none;fill-rule:nonzero;fill:rgb(80.392157%,40.392157%,60%);fill-opacity:1;" d="M 43.023438 21.296875 C 41.285156 21.304688 39.773438 21.71875 38.507812 22.332031 C 38.042969 21.421875 37.578125 20.613281 37.496094 20.019531 C 37.40625 19.328125 37.296875 18.90625 37.40625 18.078125 C 37.511719 17.253906 38.003906 16.074219 37.996094 15.984375 C 37.988281 15.894531 37.886719 15.472656 36.886719 15.464844 C 35.882812 15.457031 35.019531 15.652344 34.917969 15.914062 C 34.816406 16.175781 34.625 16.769531 34.5 17.378906 C 34.324219 18.277344 32.496094 21.484375 31.449219 23.164062 C 31.109375 22.511719 30.820312 21.933594 30.757812 21.476562 C 30.664062 20.785156 30.554688 20.363281 30.664062 19.535156 C 30.773438 18.707031 31.265625 17.53125 31.257812 17.441406 C 31.246094 17.351562 31.148438 16.929688 30.144531 16.921875 C 29.144531 16.910156 28.277344 17.109375 28.179688 17.371094 C 28.078125 17.628906 27.96875 18.242188 27.757812 18.835938 C 27.550781 19.429688 25.117188 24.785156 24.480469 26.167969 C 24.152344 26.878906 23.871094 27.441406 23.671875 27.828125 C 23.671875 27.828125 23.660156 27.855469 23.632812 27.902344 C 23.460938 28.234375 23.359375 28.414062 23.359375 28.414062 C 23.359375 28.414062 23.359375 28.414062 23.359375 28.421875 C 23.222656 28.664062 23.078125 28.890625 23.003906 28.890625 C 22.949219 28.890625 22.851562 28.242188 23.023438 27.363281 C 23.386719 25.503906 24.253906 22.609375 24.242188 22.511719 C 24.242188 22.457031 24.40625 21.953125 23.679688 21.691406 C 22.96875 21.433594 22.714844 21.863281 22.648438 21.863281 C 22.585938 21.863281 22.539062 22.015625 22.539062 22.015625 C 22.539062 22.015625 23.332031 18.761719 21.027344 18.761719 C 19.589844 18.761719 17.605469 20.316406 16.621094 21.71875 C 16 22.050781 14.679688 22.761719 13.269531 23.527344 C 12.730469 23.820312 12.175781 24.117188 11.65625 24.398438 C 11.621094 24.359375 11.585938 24.316406 11.546875 24.28125 C 8.761719 21.34375 3.605469 19.265625 3.824219 15.320312 C 3.90625 13.882812 4.40625 10.109375 13.726562 5.527344 C 21.394531 1.796875 27.496094 2.832031 28.550781 5.121094 C 30.0625 8.394531 25.28125 14.46875 17.359375 15.347656 C 14.335938 15.679688 12.75 14.53125 12.351562 14.097656 C 11.929688 13.648438 11.867188 13.621094 11.710938 13.710938 C 11.457031 13.847656 11.621094 14.25 11.710938 14.484375 C 11.949219 15.097656 12.921875 16.175781 14.570312 16.703125 C 16.027344 17.171875 19.570312 17.433594 23.863281 15.796875 C 28.660156 13.964844 32.414062 8.871094 31.3125 4.601562 C 30.210938 0.269531 22.921875 -1.160156 16.027344 1.257812 C 11.929688 2.695312 7.488281 4.960938 4.289062 7.90625 C 0.492188 11.414062 -0.109375 14.457031 0.136719 15.734375 C 1.019531 20.261719 7.351562 23.210938 9.882812 25.394531 C 9.753906 25.464844 9.636719 25.53125 9.535156 25.582031 C 8.269531 26.203125 3.441406 28.691406 2.242188 31.324219 C 0.875 34.308594 2.460938 36.449219 3.507812 36.734375 C 6.757812 37.625 10.101562 36.023438 11.894531 33.382812 C 13.6875 30.742188 13.46875 27.308594 12.640625 25.734375 C 12.632812 25.71875 12.621094 25.699219 12.605469 25.683594 C 12.933594 25.492188 13.269531 25.296875 13.597656 25.105469 C 14.242188 24.730469 14.882812 24.378906 15.429688 24.089844 C 15.117188 24.925781 14.890625 25.925781 14.78125 27.363281 C 14.644531 29.050781 15.347656 31.246094 16.265625 32.105469 C 16.675781 32.484375 17.160156 32.492188 17.46875 32.492188 C 18.542969 32.492188 19.027344 31.613281 19.5625 30.570312 C 20.21875 29.292969 20.8125 27.8125 20.8125 27.8125 C 20.8125 27.8125 20.074219 31.820312 22.078125 31.820312 C 22.804688 31.820312 23.542969 30.886719 23.871094 30.410156 L 23.871094 30.417969 C 23.871094 30.417969 23.890625 30.390625 23.925781 30.328125 C 24 30.210938 24.042969 30.140625 24.042969 30.140625 L 24.042969 30.121094 C 24.335938 29.617188 24.992188 28.476562 25.964844 26.582031 C 27.222656 24.136719 28.433594 21.082031 28.433594 21.082031 C 28.433594 21.082031 28.542969 21.828125 28.917969 23.066406 C 29.136719 23.796875 29.589844 24.59375 29.953125 25.367188 C 29.664062 25.773438 29.480469 25.996094 29.480469 25.996094 C 29.480469 25.996094 29.480469 25.996094 29.488281 26.003906 C 29.253906 26.3125 29 26.644531 28.714844 26.96875 C 27.722656 28.136719 26.539062 29.472656 26.375 29.859375 C 26.183594 30.320312 26.230469 30.652344 26.59375 30.921875 C 26.859375 31.117188 27.332031 31.144531 27.8125 31.117188 C 28.707031 31.054688 29.335938 30.839844 29.644531 30.707031 C 30.128906 30.535156 30.691406 30.273438 31.21875 29.886719 C 32.195312 29.175781 32.785156 28.164062 32.730469 26.824219 C 32.703125 26.085938 32.460938 25.347656 32.160156 24.65625 C 32.25 24.53125 32.332031 24.40625 32.421875 24.28125 C 33.960938 22.0625 35.15625 19.625 35.15625 19.625 C 35.15625 19.625 35.265625 20.371094 35.636719 21.613281 C 35.820312 22.242188 36.191406 22.921875 36.519531 23.589844 C 35.074219 24.746094 34.179688 26.09375 33.863281 26.976562 C 33.289062 28.613281 33.734375 29.347656 34.582031 29.519531 C 34.964844 29.601562 35.511719 29.421875 35.910156 29.25 C 36.421875 29.085938 37.023438 28.808594 37.59375 28.394531 C 38.570312 27.6875 39.507812 26.699219 39.453125 25.359375 C 39.425781 24.746094 39.261719 24.144531 39.035156 23.5625 C 40.265625 23.058594 41.847656 22.78125 43.871094 23.011719 C 48.207031 23.515625 49.0625 26.183594 48.898438 27.308594 C 48.734375 28.433594 47.824219 29.042969 47.523438 29.230469 C 47.222656 29.421875 47.121094 29.484375 47.148438 29.617188 C 47.1875 29.816406 47.332031 29.808594 47.585938 29.769531 C 47.941406 29.707031 49.863281 28.863281 49.945312 26.796875 C 50.082031 24.15625 47.53125 21.269531 43.023438 21.296875 Z M 9.582031 32.421875 C 8.140625 33.96875 6.136719 34.550781 5.273438 34.058594 C 4.34375 33.527344 4.707031 31.246094 6.476562 29.609375 C 7.550781 28.613281 8.933594 27.6875 9.855469 27.121094 C 10.0625 26.992188 10.375 26.8125 10.746094 26.589844 C 10.8125 26.554688 10.847656 26.535156 10.847656 26.535156 C 10.917969 26.492188 10.992188 26.445312 11.066406 26.402344 C 11.710938 28.738281 11.09375 30.796875 9.582031 32.421875 Z M 20.054688 25.394531 C 19.554688 26.597656 18.507812 29.679688 17.867188 29.511719 C 17.324219 29.367188 16.984375 27.03125 17.757812 24.71875 C 18.152344 23.5625 18.980469 22.175781 19.460938 21.636719 C 20.246094 20.777344 21.109375 20.488281 21.320312 20.839844 C 21.585938 21.296875 20.363281 24.640625 20.054688 25.394531 Z M 28.699219 29.472656 C 28.488281 29.582031 28.289062 29.652344 28.195312 29.601562 C 28.132812 29.5625 28.289062 29.421875 28.289062 29.421875 C 28.289062 29.421875 29.371094 28.269531 29.800781 27.75 C 30.046875 27.441406 30.335938 27.082031 30.648438 26.679688 L 30.648438 26.796875 C 30.648438 28.171875 29.296875 29.097656 28.699219 29.472656 Z M 35.363281 27.972656 C 35.210938 27.867188 35.238281 27.507812 35.757812 26.382812 C 35.957031 25.941406 36.429688 25.207031 37.242188 24.496094 C 37.332031 24.785156 37.394531 25.0625 37.386719 25.324219 C 37.378906 27.058594 36.121094 27.703125 35.363281 27.972656 Z M 35.363281 27.972656 "/>
</g>
</svg>
