<svg version="1.1" id="Layer_1" xmlns="http://www.w3.org/2000/svg" xmlns:xlink="http://www.w3.org/1999/xlink" x="0px" y="0px"
	 width="100%" viewBox="0 0 128 128" enable-background="new 0 0 128 128" xml:space="preserve">
<path fill="#52C18F" opacity="1.000000" stroke="none"
	d="
M89.110466,64.225990
	C95.066467,76.462799 101.017670,88.701942 106.981392,100.934982
	C108.779022,104.622375 110.611450,108.292809 112.912964,112.953148
	C103.182343,112.953148 94.460693,113.071342 85.750641,112.807190
	C84.631546,112.773247 83.216156,110.936653 82.542747,109.624725
	C77.530785,99.860588 72.679733,90.013962 67.755241,80.204742
	C67.035332,78.770721 66.193733,77.397804 64.867065,75.030640
	C61.814812,81.102364 59.164864,86.365204 56.522728,91.631950
	C53.465919,97.725304 50.499336,103.866486 47.295582,109.881454
	C46.622017,111.146065 45.112820,112.800392 43.946579,112.834465
	C35.365654,113.085167 26.774035,112.969902 17.198940,112.969902
	C25.332016,96.385651 33.049957,80.647911 41.115360,64.349251
	C46.085167,54.757996 50.707512,45.727654 55.329857,36.697311
	C58.417999,42.463833 61.506142,48.230354 65.069412,54.884079
	C68.359688,48.469353 71.259972,42.814960 74.614838,37.254730
	C79.749779,46.307926 84.430122,55.266960 89.110466,64.225990
z"/>
<path fill="#394D61" opacity="1.000000" stroke="none"
	d="
M55.245804,36.348480
	C50.707512,45.727654 46.085167,54.757996 41.176941,64.008133
	C33.038074,48.778885 25.185093,33.329845 16.894489,17.019884
	C26.638084,17.019884 35.222115,16.932415 43.799671,17.128273
	C44.897663,17.153345 46.395672,18.424280 46.968712,19.508858
	C49.835209,24.934202 52.455128,30.489828 55.245804,36.348480
z"/>
<path fill="#394D61" opacity="1.000000" stroke="none"
	d="
M89.370773,63.983234
	C84.430122,55.266960 79.749779,46.307926 74.869278,37.024559
	C77.470337,30.872116 80.179077,24.995983 83.157471,19.259861
	C83.698036,18.218763 85.329437,17.140371 86.479385,17.115816
	C94.935341,16.935276 103.396919,17.018295 112.959236,17.018295
	C104.959724,33.039906 97.295403,48.390190 89.370773,63.983234
z"/>
</svg>